<?xml version="1.0" encoding="iso-8859-1"?>
<!-- Generator: Adobe Illustrator 19.0.0, SVG Export Plug-In . SVG Version: 6.00 Build 0)  -->
<svg version="1.1" id="Capa_1" xmlns="http://www.w3.org/2000/svg" xmlns:xlink="http://www.w3.org/1999/xlink" x="0px" y="0px"
	 viewBox="0 0 512 512" style="enable-background:new 0 0 512 512;" xml:space="preserve">
<path style="fill:#5AF1FF;" d="M74.873,74.939c-96.435,96.435-99.616,250.469-10.116,351.059l31.964-10.655L415.277,96.787
	l10.655-31.964C325.342-24.676,171.308-21.496,74.873,74.939z"/>
<path style="fill:#51DAE6;" d="M74.873,74.939c-96.435,96.435-99.616,250.469-10.116,351.059l31.964-10.655l159.279-159.279
	L74.873,74.939z"/>
<path style="fill:#F9BC35;" d="M425.933,107.44c-3.304-3.772-6.52-7.594-10.117-11.191c-88.264-88.264-231.369-88.264-319.634,0
	s-88.264,231.369,0,319.634c3.597,3.597,7.42,6.814,11.191,10.117L425.933,107.44z"/>
<path style="fill:#F39E31;" d="M96.182,96.249c-88.264,88.264-88.264,231.369,0,319.634c3.597,3.597,7.42,6.814,11.191,10.117
	l159.279-159.28L96.182,96.249z"/>
<path style="fill:#FFDBB2;" d="M404.622,128.75c-3.258-3.796-6.518-7.595-10.116-11.193c-76.496-76.496-200.521-76.496-277.016,0
	s-76.496,200.521,0,277.016c3.597,3.597,7.396,6.858,11.193,10.116L404.622,128.75z"/>
<path style="fill:#FFEACC;" d="M117.491,117.558c-76.496,76.496-76.496,200.521,0,277.016c3.597,3.597,7.396,6.858,11.193,10.116
	l137.97-137.97L117.491,117.558z"/>
<path style="fill:#F7993C;" d="M383.315,150.058c-3.196-3.831-6.52-7.594-10.117-11.191c-64.728-64.728-169.67-64.728-234.398,0
	s-64.728,169.67,0,234.398c3.597,3.597,7.36,6.92,11.191,10.117L383.315,150.058z"/>
<path style="fill:#EC8237;" d="M138.799,138.866c-64.728,64.728-64.728,169.67,0,234.398c3.597,3.597,7.36,6.92,11.191,10.117
	L266.653,266.72L138.799,138.866z"/>
<path style="fill:#FEDFA6;" d="M361.469,171.904c-3.147-3.941-5.931-8.079-9.58-11.729c-52.959-52.959-138.822-52.959-191.781,0
	s-52.959,138.822,0,191.781c3.649,3.649,7.788,6.433,11.729,9.58L361.469,171.904z"/>
<path style="fill:#FCCC92;" d="M160.108,160.175c-52.959,52.959-52.959,138.822,0,191.781c3.649,3.649,7.788,6.433,11.729,9.58
	l94.816-94.816L160.108,160.175z"/>
<path style="fill:#F57643;" d="M340.16,193.213c-3.003-4.015-5.931-8.079-9.58-11.729c-41.19-41.19-107.973-41.19-149.162,0
	s-41.19,107.973,0,149.162c3.649,3.649,7.714,6.578,11.729,9.58L340.16,193.213z"/>
<path style="fill:#E6653D;" d="M181.418,181.484c-41.19,41.19-41.19,107.973,0,149.162c3.649,3.649,7.714,6.578,11.729,9.58
	l73.507-73.507L181.418,181.484z"/>
<path style="fill:#FCD381;" d="M318.851,214.522c-2.744-4.144-5.931-8.079-9.58-11.729c-29.422-29.422-77.122-29.422-106.545,0
	s-29.422,77.122,0,106.545c3.649,3.649,7.585,6.836,11.729,9.58L318.851,214.522z"/>
<path style="fill:#F9BD72;" d="M202.726,202.794c-29.422,29.422-29.422,77.122,0,106.545c3.649,3.649,7.585,6.836,11.729,9.58
	l52.198-52.198L202.726,202.794z"/>
<path style="fill:#F4534A;" d="M296.66,236.713c-2.158-4.537-4.942-8.855-8.698-12.611c-17.653-17.653-46.274-17.653-63.927,0
	s-17.653,46.274,0,63.927c3.756,3.756,8.073,6.54,12.611,8.698L296.66,236.713z"/>
<path style="fill:#E04942;" d="M224.035,224.102c-17.653,17.653-17.653,46.274,0,63.927c3.756,3.756,8.073,6.54,12.611,8.698
	l30.007-30.007L224.035,224.102z"/>
<path style="fill:#4DB5FF;" d="M437.124,74.939c3.622,3.622,6.605,7.457,10.015,11.295c27.063,30.47,45.602,65.631,55.616,102.494
	c12.147,44.109,12.361,90.776,0.427,134.674c-11.295,41.552-33.454,81.186-66.057,113.789
	c-30.685,30.685-67.548,52.208-106.545,63.927c-48.583,14.49-100.579,14.49-149.162-0.427
	c-34.307-10.441-66.911-28.126-95.25-53.485c-3.837-3.41-7.672-6.393-11.295-10.015c-3.623-3.623-6.606-7.458-10.015-11.295
	L425.831,64.925C429.666,68.334,433.501,71.316,437.124,74.939z"/>
<path style="fill:#4D97FF;" d="M245.344,245.411L64.858,425.897c3.409,3.835,6.391,7.67,10.015,11.295
	c3.622,3.622,7.457,6.605,11.295,10.015c28.34,25.359,60.943,43.044,95.25,53.485c48.583,14.916,100.579,14.916,149.162,0.427
	c38.996-11.72,75.86-33.242,106.545-63.927L245.344,245.411z"/>
<path style="fill:#7FCC29;" d="M319.925,383.919L319.925,383.919c-17.653,17.653-46.274,17.653-63.927,0l0,0
	c-17.653-17.653-17.653-46.274,0-63.927l0,0c17.653-17.653,46.274-17.653,63.927,0l0,0
	C337.578,337.645,337.578,366.266,319.925,383.919z"/>
<path style="fill:#87D92B;" d="M502.755,188.728c12.147,44.109,12.361,90.776,0.427,134.674
	c-28.341,14.276-63.713,9.588-87.366-14.064c-14.703-14.703-22.161-34.095-22.163-53.272c0-19.178,7.458-38.569,22.163-53.272
	c14.703-14.703,34.094-22.163,53.272-22.163C480.595,180.632,492.1,183.189,502.755,188.728z"/>
<path style="fill:#7FCC29;" d="M309.271,437.192c14.703,14.703,22.161,34.095,22.161,53.271c0,3.41-0.213,7.034-0.852,10.656
	c-48.583,14.49-100.579,14.49-149.162-0.427c-0.427-3.41-0.852-6.819-0.853-10.228c0-19.178,7.459-38.569,22.163-53.272
	C232.133,407.786,279.865,407.786,309.271,437.192z"/>
<g>
</g>
<g>
</g>
<g>
</g>
<g>
</g>
<g>
</g>
<g>
</g>
<g>
</g>
<g>
</g>
<g>
</g>
<g>
</g>
<g>
</g>
<g>
</g>
<g>
</g>
<g>
</g>
<g>
</g>
</svg>
