<?xml version="1.0" encoding="iso-8859-1"?>
<!-- Generator: Adobe Illustrator 19.0.0, SVG Export Plug-In . SVG Version: 6.00 Build 0)  -->
<svg version="1.1" id="Capa_1" xmlns="http://www.w3.org/2000/svg" xmlns:xlink="http://www.w3.org/1999/xlink" x="0px" y="0px"
	 viewBox="0 0 512 512" style="enable-background:new 0 0 512 512;" xml:space="preserve">
<path style="fill:#FEDB41;" d="M421,181c0,1.199,0,2.1-0.3,2.999L376,226H136l-44.7-42.001C91,183.1,91,182.199,91,181
	c0-90.901,74.099-165,165-165h0.901C347.5,16.599,421,90.399,421,181z"/>
<path style="fill:#FFCC33;" d="M421,181c0,1.199,0,2.1-0.3,2.999L376,226H256.901V16C347.5,16.599,421,90.399,421,181z"/>
<path style="fill:#EF2E2E;" d="M262.639,420.659L155.997,220.838l-64.838-36.7C37.731,211.48,0,266.974,0,331
	c0,90.981,75.019,165,166,165c33.203,0,64.089-9.944,90-26.887L262.639,420.659z"/>
<path style="fill:#136EF1;" d="M420.841,184.138l-63.572,31.219L246.792,423.042L256,469.113C281.911,486.056,312.797,496,346,496
	c90.981,0,166-74.019,166-165C512,266.974,474.269,211.48,420.841,184.138z"/>
<path style="fill:#B758CE;" d="M331,331c0,57.599-29.7,107.999-74.099,137.399c-0.3,0.3-0.601,0.3-0.901,0.601
	c-45-29.4-75-80.1-75-138c0-1.201,0-2.1,0.3-3.001l15.601-23.099h117.9l15.899,23.099C331,328.9,331,329.799,331,331z"/>
<path style="fill:#FEA832;" d="M166,166c-26.955,0-52.346,6.627-74.841,18.138c1.188,62.69,37.456,116.834,90,143.723l32.097-23.348
	l29.788-72.233L256,192.887C230.089,175.944,199.203,166,166,166z"/>
<path style="fill:#10BB67;" d="M346,166c-33.203,0-64.089,9.944-90,26.887l-11.212,44.291l54.655,72.089l31.397,18.594
	c52.544-26.889,88.812-81.033,90-143.723C398.346,172.627,372.955,166,346,166z"/>
<path style="fill:#AA3DC8;" d="M331,331c0,57.599-29.7,107.999-74.099,137.399V304.9h57.9l15.899,23.099
	C331,328.9,331,329.799,331,331z"/>
<path style="fill:#495A79;" d="M330.7,327.999c-22.2,11.4-47.1,17.701-73.799,18.001H256c-27.001,0-52.2-6.601-74.7-18.001
	c0.899-56.699,30.3-106.199,74.7-135c0.3,0.3,0.601,0.3,0.901,0.601C300.7,222.4,329.801,271.599,330.7,327.999z"/>
<path style="fill:#42516D;" d="M330.7,327.999c-22.2,11.4-47.1,17.701-73.799,18.001V193.599
	C300.7,222.4,329.801,271.599,330.7,327.999z"/>
<g>
</g>
<g>
</g>
<g>
</g>
<g>
</g>
<g>
</g>
<g>
</g>
<g>
</g>
<g>
</g>
<g>
</g>
<g>
</g>
<g>
</g>
<g>
</g>
<g>
</g>
<g>
</g>
<g>
</g>
</svg>
